<svg width="50" height="50" viewBox="0 0 50 50" fill="none" xmlns="http://www.w3.org/2000/svg">
<rect width="50" height="50" fill="white"/>
<path fill-rule="evenodd" clip-rule="evenodd" d="M26.7811 14H15.693V32.9L26.7811 32.9368V23.1V21.7V14ZM24.7021 16.1H17.772V21.7H24.7021V16.1Z" fill="black"/>
<path d="M26.7811 32.9368L15.693 32.9H15V35H27.4741V32.9L26.7811 32.9368Z" fill="black"/>
<path d="M28.8683 24.5C28.8683 22.82 27.4768 21.7 26.7811 21.7V23.1C27.8943 23.1 27.4768 25.9 27.4768 28C27.4768 30.8 29.796 32.2 30.9556 32.2C35.0971 32.2 33.7111 25.9 33.0428 20.3C35.8258 19.18 31.8832 16.1 29.5641 14.7H27.4768V15.4C27.5073 15.4 27.5379 15.4011 27.5685 15.4032C29.2124 15.5189 30.9683 18.6965 31.6513 20.3L32.3471 24.5C33.0428 28.7 32.6254 30.8 30.9556 30.8C29.2858 30.8 28.8683 28.7 28.8683 28V24.5Z" fill="black"/>
</svg>
