<svg width="50" height="50" viewBox="0 0 50 50" fill="none" xmlns="http://www.w3.org/2000/svg">
<rect width="50" height="50" fill="white"/>
<path d="M26 11C24.3431 11 23 12.3431 23 14C23 15.1104 23.6033 16.0799 24.5 16.5987C24.9413 16.8539 25.4536 17 26 17C26.5464 17 27.0587 16.8539 27.5 16.5987C28.3967 16.0799 29 15.1104 29 14C29 12.3431 27.6569 11 26 11Z" fill="black"/>
<path d="M26 17C25.4536 17 24.9413 16.8539 24.5 16.5987V19.2416C24.9832 19.0834 25.4851 19 26 19C26.5149 19 27.0168 19.0834 27.5 19.2416L27.5 16.5987C27.0587 16.8539 26.5464 17 26 17Z" fill="black"/>
<path d="M19.0437 28.32L27.7836 19.3439C27.6898 19.3069 27.5953 19.2728 27.5 19.2416C27.0168 19.0834 26.5149 19 26 19C25.4851 19 24.9832 19.0834 24.5 19.2416C21.6044 20.1899 19.3787 23.8264 19.0437 28.32Z" fill="black"/>
<path d="M34 16L32.5 14.5L27.7836 19.3439C28.4355 19.6008 29.0503 19.9952 29.6133 20.5052L34 16Z" fill="black"/>
<path d="M33 29.5C33 25.6841 31.643 22.3437 29.6133 20.5052L20.1936 30.1796C23.8939 28.9817 28.4629 28.7319 32.9036 31.2461C32.967 30.6782 33 30.0949 33 29.5Z" fill="black"/>
<path d="M14 33.5L15.5 35C15.7444 34.6579 16.07 34.3253 16.4646 34.0093L19.1025 31.3002C19.0757 31.0673 19.054 30.8319 19.0375 30.5941C16.9354 31.4221 15.1845 32.5215 14 33.5Z" fill="black"/>
<path d="M19.0437 28.32L14 33.5C15.1845 32.5215 16.9354 31.4221 19.0375 30.5941C19.0127 30.2345 19 29.8695 19 29.5C19 29.1011 19.0148 28.7073 19.0437 28.32Z" fill="black"/>
<path d="M19.2842 32.4711C19.2092 32.0893 19.1484 31.6986 19.1025 31.3002L16.4646 34.0093C17.1941 33.4252 18.1595 32.8978 19.2842 32.4711Z" fill="black"/>
<path d="M35.5 35L36 33.5C34.9836 32.5804 33.9472 31.837 32.9036 31.2461C32.8366 31.8465 32.7357 32.4297 32.6038 32.9909C33.6315 33.5135 34.6081 34.1767 35.5 35Z" fill="black"/>
<path d="M32.6038 32.9909C28.2268 30.7653 22.9221 31.0909 19.2842 32.4711C19.7387 34.7865 20.711 36.7693 22 38.118C22.8745 39.033 23.5 40 24.9982 39.8933C25.5 40 22.9049 35.8667 22.5 34C23.5 33.1667 26.2 32 29 34C28.5778 35.7802 26 40 26.8666 39.9203C29.5342 39.4262 31.7369 36.681 32.6038 32.9909Z" fill="black"/>
</svg>
