<svg width="50" height="50" viewBox="0 0 50 50" fill="none" xmlns="http://www.w3.org/2000/svg">
<rect width="50" height="50" fill="white"/>
<path d="M26.7183 37.1456L23.9014 27.3359C23.7753 26.8966 24.0041 26.4329 24.4262 26.2722C24.8764 26.1009 25.3777 26.3366 25.54 26.7959L28.9389 36.4137C29.1211 36.9293 28.9315 37.5045 28.4803 37.805C27.8239 38.2422 26.9379 37.9107 26.7183 37.1456Z" fill="black"/>
<path d="M26.2895 18.7153C26.2895 22.424 23.3272 25.4305 19.6731 25.4305C16.0189 25.4305 13.0567 22.424 13.0567 18.7153C13.0567 15.0065 16.0189 12 19.6731 12C23.3272 12 26.2895 15.0065 26.2895 18.7153Z" fill="black"/>
<path d="M34.9953 15.3576C34.9953 17.212 33.5142 18.7153 31.6871 18.7153C29.86 18.7153 28.3789 17.212 28.3789 15.3576C28.3789 13.5033 29.86 12 31.6871 12C33.5142 12 34.9953 13.5033 34.9953 15.3576Z" fill="black"/>
<path d="M23.6778 30.3786L25.0707 34.9733L19.069 30.7431C18.9189 30.6373 18.7137 30.6673 18.5991 30.8118L14.1018 36.4829C13.5189 37.2179 12.4669 37.3518 11.7232 36.7857C10.9334 36.1845 10.7712 35.0111 11.3321 34.1865C11.9579 33.2666 12.9274 31.8125 14.4496 29.495C17.6998 24.5469 22.6331 27.021 23.6778 30.3786Z" fill="black"/>
<path d="M28.7271 31.4389L25.9413 25.4305L28.6735 20.7668C29.2392 19.8011 30.5376 19.6094 31.351 20.3715L33.1957 22.0997C33.8296 22.6935 33.9394 23.669 33.4539 24.3927L28.7271 31.4389Z" fill="black"/>
<path d="M39 15.8878L34.2339 19.2253C33.6739 19.6174 33.5662 20.4034 34.0001 20.9317C34.3712 21.3836 35.0183 21.4934 35.5177 21.1893L39 19.0687V15.8878Z" fill="black"/>
</svg>
