<svg width="50" height="50" viewBox="0 0 50 50" fill="none" xmlns="http://www.w3.org/2000/svg">
<rect width="50" height="50" fill="white"/>
<path fill-rule="evenodd" clip-rule="evenodd" d="M17.7615 18.5V22.9688C17.7615 23.4175 18.13 23.7812 18.5845 23.7812H18.9961V26.2188C18.9961 26.6675 19.3646 27.0312 19.8191 27.0312H21.8939C22.3484 27.0312 22.7169 26.6675 22.7169 26.2188V23.7812H30.5019V26.2188C30.5019 26.6675 30.8704 27.0312 31.325 27.0312H33.3997C33.8543 27.0312 34.2228 26.6675 34.2228 26.2188V23.7812H35.0459C35.5004 23.7812 35.8689 23.4175 35.8689 22.9688V18.5C36.3235 18.5 36.692 18.1362 36.692 17.6875V16.875C36.692 16.4263 36.3235 16.0625 35.8689 16.0625H34.2228L33.0348 14.0313C32.2997 12.7743 30.9411 12 29.4708 12H23.748C22.2778 12 20.9192 12.7743 20.1841 14.0313L18.9961 16.0625H17.3499C16.8954 16.0625 16.5269 16.4263 16.5269 16.875V17.6875C16.5269 18.1362 16.8954 18.5 17.3499 18.5H17.7615ZM32.1651 17.2812H21.0537L22.7169 14.4375H30.5019L32.1651 17.2812Z" fill="black"/>
<path d="M33.0705 34.3438C40.1777 34.3438 38.4205 28.6562 35.1282 28.6562H29.3668C32.659 28.6562 34.4163 34.3438 27.309 34.3438C23.1938 34.3438 23.0291 38 28.9552 38H34.7166C28.7905 38 28.9552 34.3438 33.0705 34.3438Z" fill="black"/>
<path d="M20.7245 34.3438C27.8317 34.3438 26.0745 28.6562 22.7822 28.6562H17.0208C20.313 28.6562 22.0703 34.3438 14.963 34.3438C10.8478 34.3438 10.6831 38 16.6092 38H22.3706C16.4446 38 16.6092 34.3438 20.7245 34.3438Z" fill="black"/>
<path fill-rule="evenodd" clip-rule="evenodd" d="M17.7615 18.5V22.9688C17.7615 23.4175 18.13 23.7812 18.5845 23.7812H18.9961V26.2188C18.9961 26.6675 19.3646 27.0312 19.8191 27.0312H21.8939C22.3484 27.0312 22.7169 26.6675 22.7169 26.2188V23.7812H30.5019V26.2188C30.5019 26.6675 30.8704 27.0312 31.325 27.0312H33.3997C33.8543 27.0312 34.2228 26.6675 34.2228 26.2188V23.7812H35.0459C35.5004 23.7812 35.8689 23.4175 35.8689 22.9688V18.5C36.3235 18.5 36.692 18.1362 36.692 17.6875V16.875C36.692 16.4263 36.3235 16.0625 35.8689 16.0625H34.2228L33.0348 14.0313C32.2997 12.7743 30.9411 12 29.4708 12H23.748C22.2778 12 20.9192 12.7743 20.1841 14.0313L18.9961 16.0625H17.3499C16.8954 16.0625 16.5269 16.4263 16.5269 16.875V17.6875C16.5269 18.1362 16.8954 18.5 17.3499 18.5H17.7615ZM32.1651 17.2812H21.0537L22.7169 14.4375H30.5019L32.1651 17.2812Z" stroke="black"/>
<path d="M33.0705 34.3438C40.1777 34.3438 38.4205 28.6562 35.1282 28.6562H29.3668C32.659 28.6562 34.4163 34.3438 27.309 34.3438C23.1938 34.3438 23.0291 38 28.9552 38H34.7166C28.7905 38 28.9552 34.3438 33.0705 34.3438Z" stroke="black"/>
<path d="M20.7245 34.3438C27.8317 34.3438 26.0745 28.6562 22.7822 28.6562H17.0208C20.313 28.6562 22.0703 34.3438 14.963 34.3438C10.8478 34.3438 10.6831 38 16.6092 38H22.3706C16.4446 38 16.6092 34.3438 20.7245 34.3438Z" stroke="black"/>
</svg>
