<svg width="50" height="50" viewBox="0 0 50 50" fill="none" xmlns="http://www.w3.org/2000/svg">
<rect width="50" height="50" fill="white"/>
<path d="M20.18 31V29.52C20.18 28.7733 20.2267 28.0267 20.32 27.28C20.4133 26.5333 20.5267 25.7933 20.66 25.06C20.7933 24.3267 20.94 23.5933 21.1 22.86C21.26 22.1267 21.4267 21.3933 21.6 20.66C21.7733 19.9267 21.9533 19.2 22.14 18.48C22.3267 17.7467 22.52 17.02 22.72 16.3H25.28C25.48 17.02 25.6733 17.7467 25.86 18.48C26.0467 19.2 26.2267 19.9267 26.4 20.66C26.5733 21.3933 26.74 22.1267 26.9 22.86C27.06 23.5933 27.2067 24.3267 27.34 25.06C27.4733 25.7933 27.5867 26.5333 27.68 27.28C27.7733 28.0267 27.82 28.7733 27.82 29.52V31H25.6V29.52C25.6 29.2267 25.5867 28.9333 25.56 28.64C25.5467 28.3333 25.5267 28.0267 25.5 27.72H22.5C22.4733 28.0267 22.4467 28.3333 22.42 28.64C22.4067 28.9333 22.4 29.2267 22.4 29.52V31H20.18ZM22.72 25.8H25.28C25.12 24.6133 24.9267 23.4333 24.7 22.26C24.4867 21.0733 24.2533 19.8933 24 18.72C23.7467 19.8933 23.5067 21.0733 23.28 22.26C23.0667 23.4333 22.88 24.6133 22.72 25.8Z" fill="black"/>
<path d="M11.7763 12.5263C8.81533 15.6844 7 19.9444 7 24.6316C7 29.3188 8.81533 33.5788 11.7763 36.7368M37.2237 12.5263C40.1847 15.6844 42 19.9444 42 24.6316C42 29.3188 40.1847 33.5788 37.2237 36.7368M36.7761 24.5C36.7761 31.4036 31.2214 37 24.3694 37C17.5174 37 11.9627 31.4036 11.9627 24.5C11.9627 17.5964 17.5174 12 24.3694 12C31.2214 12 36.7761 17.5964 36.7761 24.5Z" stroke="black"/>
</svg>
