<svg width="50" height="50" viewBox="0 0 50 50" fill="none" xmlns="http://www.w3.org/2000/svg">
<rect width="50" height="50" fill="white"/>
<path d="M16.017 29V28.038C16.017 27.5527 16.0473 27.0673 16.108 26.582C16.1687 26.0967 16.2423 25.6157 16.329 25.139C16.4157 24.6623 16.511 24.1857 16.615 23.709C16.719 23.2323 16.8273 22.7557 16.94 22.279C17.0527 21.8023 17.1697 21.33 17.291 20.862C17.4123 20.3853 17.538 19.913 17.668 19.445H19.332C19.462 19.913 19.5877 20.3853 19.709 20.862C19.8303 21.33 19.9473 21.8023 20.06 22.279C20.1727 22.7557 20.281 23.2323 20.385 23.709C20.489 24.1857 20.5843 24.6623 20.671 25.139C20.7577 25.6157 20.8313 26.0967 20.892 26.582C20.9527 27.0673 20.983 27.5527 20.983 28.038V29H19.54V28.038C19.54 27.8473 19.5313 27.6567 19.514 27.466C19.5053 27.2667 19.4923 27.0673 19.475 26.868H17.525C17.5077 27.0673 17.4903 27.2667 17.473 27.466C17.4643 27.6567 17.46 27.8473 17.46 28.038V29H16.017ZM17.668 25.62H19.332C19.228 24.8487 19.1023 24.0817 18.955 23.319C18.8163 22.5477 18.6647 21.7807 18.5 21.018C18.3353 21.7807 18.1793 22.5477 18.032 23.319C17.8933 24.0817 17.772 24.8487 17.668 25.62ZM24.805 29H22.517V19.445H24.805C25.0303 19.445 25.2557 19.4667 25.481 19.51C25.715 19.5533 25.9317 19.627 26.131 19.731C26.339 19.835 26.521 19.9737 26.677 20.147C26.8417 20.3117 26.9717 20.498 27.067 20.706C27.171 20.9053 27.2403 21.122 27.275 21.356C27.3183 21.5813 27.34 21.8067 27.34 22.032C27.34 22.2313 27.3227 22.4307 27.288 22.63C27.262 22.8207 27.2057 23.0027 27.119 23.176C27.0323 23.3493 26.9197 23.5097 26.781 23.657C26.651 23.7957 26.4993 23.917 26.326 24.021C26.5427 24.1163 26.742 24.2377 26.924 24.385C27.106 24.5323 27.2533 24.7057 27.366 24.905C27.4873 25.1043 27.5697 25.321 27.613 25.555C27.665 25.7803 27.691 26.01 27.691 26.244C27.691 26.4953 27.665 26.7467 27.613 26.998C27.5697 27.2493 27.4873 27.4877 27.366 27.713C27.2447 27.9297 27.0887 28.1247 26.898 28.298C26.7073 28.4713 26.4993 28.6143 26.274 28.727C26.0487 28.831 25.8103 28.9047 25.559 28.948C25.3077 28.9827 25.0563 29 24.805 29ZM23.96 23.436H24.805C24.9697 23.436 25.13 23.4013 25.286 23.332C25.442 23.254 25.5633 23.1457 25.65 23.007C25.7453 22.8683 25.8103 22.7167 25.845 22.552C25.8797 22.3873 25.897 22.2227 25.897 22.058C25.897 21.8933 25.8797 21.7287 25.845 21.564C25.8103 21.3993 25.7453 21.252 25.65 21.122C25.5547 20.9833 25.429 20.8793 25.273 20.81C25.1257 20.732 24.9697 20.693 24.805 20.693H23.96V23.436ZM23.96 27.752H24.805C25.0043 27.752 25.1993 27.7217 25.39 27.661C25.5807 27.5917 25.741 27.4833 25.871 27.336C26.0097 27.1887 26.105 27.0153 26.157 26.816C26.2177 26.6167 26.248 26.4173 26.248 26.218C26.248 26.0187 26.2177 25.8237 26.157 25.633C26.105 25.4337 26.014 25.2603 25.884 25.113C25.754 24.957 25.5893 24.8487 25.39 24.788C25.1993 24.7187 25.0043 24.684 24.805 24.684H23.96V27.752ZM31.487 29.104C31.2617 29.104 31.0363 29.0867 30.811 29.052C30.5943 29.0173 30.382 28.9523 30.174 28.857C29.9747 28.753 29.7883 28.6273 29.615 28.48C29.4503 28.324 29.3117 28.1507 29.199 27.96C29.095 27.7607 29.017 27.5527 28.965 27.336C28.913 27.1107 28.887 26.8853 28.887 26.66V26.543H30.33V26.595C30.33 26.7597 30.3517 26.92 30.395 27.076C30.447 27.232 30.525 27.375 30.629 27.505C30.733 27.6263 30.8587 27.7173 31.006 27.778C31.162 27.83 31.3223 27.856 31.487 27.856C31.643 27.856 31.799 27.83 31.955 27.778C32.111 27.7173 32.241 27.6263 32.345 27.505C32.449 27.3837 32.5227 27.245 32.566 27.089C32.618 26.933 32.644 26.777 32.644 26.621C32.644 26.4043 32.6007 26.1963 32.514 25.997C32.4273 25.7977 32.3103 25.6243 32.163 25.477C32.0157 25.321 31.8467 25.191 31.656 25.087C31.474 24.983 31.2877 24.879 31.097 24.775C30.915 24.671 30.733 24.5627 30.551 24.45C30.369 24.3373 30.2 24.2117 30.044 24.073C29.888 23.9257 29.745 23.7653 29.615 23.592C29.485 23.4187 29.3723 23.2367 29.277 23.046C29.1903 22.8553 29.1253 22.656 29.082 22.448C29.0387 22.2313 29.017 22.019 29.017 21.811C29.017 21.5857 29.0387 21.3647 29.082 21.148C29.134 20.9313 29.2077 20.7277 29.303 20.537C29.407 20.3377 29.537 20.16 29.693 20.004C29.8577 19.8393 30.0353 19.7093 30.226 19.614C30.4253 19.51 30.6333 19.4407 30.85 19.406C31.0753 19.3627 31.2963 19.341 31.513 19.341C31.7297 19.341 31.9463 19.3627 32.163 19.406C32.3883 19.4407 32.5963 19.51 32.787 19.614C32.9863 19.7093 33.164 19.835 33.32 19.991C33.476 20.147 33.606 20.3247 33.71 20.524C33.814 20.7147 33.8877 20.9183 33.931 21.135C33.983 21.3517 34.009 21.5683 34.009 21.785V21.902H32.566V21.85C32.566 21.694 32.5443 21.5423 32.501 21.395C32.4663 21.239 32.4013 21.1003 32.306 20.979C32.2193 20.849 32.1023 20.7537 31.955 20.693C31.8163 20.6237 31.669 20.589 31.513 20.589C31.357 20.589 31.2053 20.6193 31.058 20.68C30.9193 20.7407 30.8023 20.8317 30.707 20.953C30.6203 21.0743 30.5553 21.213 30.512 21.369C30.4773 21.5163 30.46 21.668 30.46 21.824C30.46 22.032 30.5033 22.2357 30.59 22.435C30.6767 22.6343 30.7937 22.812 30.941 22.968C31.0883 23.124 31.253 23.254 31.435 23.358C31.6257 23.462 31.812 23.566 31.994 23.67C32.1847 23.7653 32.3667 23.8737 32.54 23.995C32.722 24.1077 32.891 24.2377 33.047 24.385C33.2117 24.5237 33.359 24.6797 33.489 24.853C33.619 25.0177 33.7273 25.1997 33.814 25.399C33.9007 25.5897 33.9657 25.789 34.009 25.997C34.061 26.205 34.087 26.4173 34.087 26.634C34.087 26.8593 34.061 27.0847 34.009 27.31C33.957 27.5267 33.8747 27.7347 33.762 27.934C33.658 28.1333 33.5237 28.311 33.359 28.467C33.1943 28.623 33.008 28.7487 32.8 28.844C32.6007 28.9393 32.3883 29.0043 32.163 29.039C31.9377 29.0823 31.7123 29.104 31.487 29.104Z" fill="black"/>
<path d="M11.7763 12.5263C8.81533 15.6844 7 19.9444 7 24.6316C7 29.3188 8.81533 33.5788 11.7763 36.7368M37.2237 12.5263C40.1847 15.6844 42 19.9444 42 24.6316C42 29.3188 40.1847 33.5788 37.2237 36.7368M36.7761 24.5C36.7761 31.4036 31.2214 37 24.3694 37C17.5174 37 11.9627 31.4036 11.9627 24.5C11.9627 17.5964 17.5174 12 24.3694 12C31.2214 12 36.7761 17.5964 36.7761 24.5Z" stroke="black"/>
</svg>
